# xmcd CD database file
#
# Track frame offsets:
#	150
#	11515
#	23812
#	37040
#	47680
#	61430
#	72337
#	84182
#	101115
#	112190
#	124445
#	135562
#	146962
#	156210
#
# Disc length: 2272 seconds
#
# Revision: 0
# Processed by: cddbd v1.5.2PL0 Copyright (c) Steve Scherf et al.
# Submitted via: CDex 1.51
#
DISCID=cb08de0e
DTITLE=Various Artist - Countr Collection - crazy
DYEAR=1997
DGENRE=Country
TTITLE0=DONNA FARGO - The Happiest Girl in the Hole U.S.A.
TTITLE1=CHARLIE RICH - There Won't Be Anymore
TTITLE2=LYNN ANDERSON - Top of the World
TTITLE3=FREDDY FENDER - Wasted Day and Wasted Nights
TTITLE4=THE JORDANAIRES - Sweet Dreams
TTITLE5=LORETTA LYNN - Crazy
TTITLE6=WAYLON JENNINGS - Don't Think Twice
TTITLE7=KENNY ROGERS and THE FIRST EDITION - Something's Burning
TTITLE8=DON GIBSON - Oh Lonesome Me
TTITLE9=DON WILLIAMS - There's Never Been A Time
TTITLE10=CHARLIE  McCOY - Orange Blossom Special
TTITLE11=SKEETER DAVIS - Gonna Get Along Without You Now
TTITLE12=WILLIE NELSON - One Step Beyond
TTITLE13=LA TOYA JACKSON - Burnin' Love
EXTD=YEAR: 1997
EXTT0=
EXTT1=
EXTT2=
EXTT3=
EXTT4=
EXTT5=
EXTT6=
EXTT7=
EXTT8=
EXTT9=
EXTT10=
EXTT11=
EXTT12=
EXTT13=
PLAYORDER=
